<svg height="511pt" viewBox="0 -73 511.99911 511" width="511pt" xmlns="http://www.w3.org/2000/svg"><path d="m70.117188 137.21875h.023437c7.238281 0 13.84375-4.085938 16.828125-10.414062 13.898438-29.476563 43.921875-48.519532 76.484375-48.519532h.160156c11.804688 0 23.003907-5.746094 29.953125-15.375 18.988282-26.292968 48.253906-43.59375 80.289063-47.464844 4.113281-.496093 7.042969-4.230468 6.546875-8.34375-.496094-4.113281-4.242188-7.0468745-8.34375-6.546874-36.179688 4.371093-69.222656 23.898437-90.652344 53.574218-4.140625 5.734375-10.792969 9.152344-17.796875 9.152344h-.15625c-38.34375 0-73.691406 22.425781-90.054687 57.125-.519532 1.101562-1.796876 1.8125-3.339844 1.8125-.003906 0-.003906 0-.007813 0-38.625 0-70.050781 31.425781-70.050781 70.054688 0 38.628906 31.425781 70.054687 70.054688 70.054687h101.90625v80.300781c0 9.324219 7.585937 16.910156 16.90625 16.910156h24.464843c9.320313 0 16.90625-7.585937 16.90625-16.910156v-80.300781h65.441407v6.632813h-24.097657c-13.683593 0-21.125 15.976562-12.34375 26.453124l53.234375 63.523438c6.441406 7.683594 18.257813 7.671875 24.691406 0l53.234376-63.523438c8.789062-10.488281 1.324218-26.453124-12.34375-26.453124h-24.097657v-6.632813h56.828125c55.179688 0 102.328125-44.738281 101.195313-101.550781-1.078125-53.886719-45.007813-97.496094-99.503907-97.496094h-.15625c-7.003906 0-13.65625-3.421875-17.796874-9.152344-20.554688-28.460937-50.867188-47.21875-85.359376-52.820312-4.09375-.660156-7.941406 2.113281-8.605468 6.203125-.664063 4.089843 2.109375 7.941406 6.199218 8.605469 30.542969 4.960937 57.394532 21.578124 75.605469 46.796874 6.953125 9.625 18.152344 15.371094 29.957031 15.371094h.15625c45.683594 0 83.59375 37.140625 84.507813 82.792969.953125 47.804687-38.773437 86.25-86.195313 86.25h-56.828124v-26.503906c0-4.140625-3.359376-7.5-7.503907-7.5-4.140625 0-7.5 3.359375-7.5 7.5v55.636719c0 4.144531 3.359375 7.5 7.5 7.5h31.597657c.195312 0 .707031 0 1.003906.640624.296875.636719-.03125 1.027344-.152344 1.175782l-53.238281 63.523437c-.4375.523438-1.253907.523438-1.695313 0l-53.234375-63.523437c-.125-.148438-.453125-.539063-.15625-1.175782.300781-.640624.8125-.640624 1.003907-.640624h31.597656c4.144531 0 7.5-3.355469 7.5-7.5v-110.167969c0-1.050781.855468-1.90625 1.90625-1.90625h24.464844c1.050781 0 1.90625.855469 1.90625 1.90625v19.53125c0 4.140625 3.355468 7.5 7.5 7.5 4.144531 0 7.5-3.359375 7.5-7.5v-19.53125c0-9.320313-7.585938-16.90625-16.90625-16.90625h-24.464844c-9.320313 0-16.90625 7.585937-16.90625 16.90625v81.03125h-65.441406v-7.359375h24.097656c13.679687 0 21.125-15.976563 12.34375-26.453125l-53.234375-63.523438c-6.441407-7.683593-18.261719-7.675781-24.691407 0l-53.238281 63.523438c-8.785156 10.484375-1.324219 26.453125 12.347657 26.453125h24.097656v7.359375h-101.910156c-30.355469 0-55.054688-24.695313-55.054688-55.050781 0-30.355469 24.699219-55.054688 55.117188-55.054688zm77.746093 87.742188c-.191406 0-.707031 0-1.003906-.636719s.03125-1.03125.15625-1.179688l53.238281-63.523437c.21875-.261719.503906-.394532.84375-.394532.34375 0 .628906.132813.847656.394532l53.238282 63.523437c.125.148438.453125.539063.15625 1.179688-.300782.636719-.8125.636719-1.003906.636719h-31.597657c-4.144531 0-7.5 3.359374-7.5 7.5v110.167968c0 1.050782-.855469 1.90625-1.910156 1.90625h-24.460937c-1.050782 0-1.90625-.855468-1.90625-1.90625v-110.167968c0-4.140626-3.359376-7.5-7.5-7.5zm0 0"/></svg>